. 
 
http://www.torrenting.com          :     Once & For all ;)


               www . Torrenting . Com 

(((((((((((((= Enjoy No RAR releases =))))))))))))))))))))


...................................NFO:....................................

.ooooo oooo   oooo oooooooo8 oooooooooo  o88   oooooooooo       o      ooooo       
 888   8888o  88 888         888    888 oooo   888    888     888      888        
 888   88 888o88  888oooooo  888oooo88   888   888oooo88     8  88     888        
 888   88   8888         888 888         888   888  88o     8oooo88    888      o 
o888o o88o    88 o88oooo888 o888o       o888o o888o  88o8 o88o  o888o o888ooooo88 

 
TITLE: 

The Sitter 2011 TS READNFO XViD - INSPiRAL

IMDB: 
 
http://www.imdb.com/title/tt1366344/


SOURCES:

VIDEO - The Sitter 2011 720p TS NEW SOURCE XviD - TH3GRiNCH
AUDIO - The Sitter 2011 720p TS NEW SOURCE XviD - TH3GRiNCH
SUBS  - None Add

STATS:

Video
ID                               : 0
Format                           : MPEG-4 Visual
Format profile                   : Advanced Simple@L5
Format settings, BVOP            : 2
Format settings, QPel            : No
Format settings, GMC             : No warppoints
Format settings, Matrix          : Default (MPEG)
Muxing mode                      : Packed bitstream
Codec ID                         : XVID
Codec ID/Hint                    : XviD
Duration                         : 1h 17mn
Bit rate                         : 2 409 Kbps
Width                            : 720 pixels
Height                           : 352 pixels
Display aspect ratio             : 2.045
Frame rate                       : 24.000 fps
Color space                      : YUV
Chroma subsampling               : 4:2:0
Bit depth                        : 8 bits
Scan type                        : Progressive
Compression mode                 : Lossy
Bits/(Pixel*Frame)               : 0.396
Stream size                      : 1.31 GiB (95%)
Writing library                  : XviD 64

Audio
ID                               : 1
Format                           : MPEG Audio
Format version                   : Version 1
Format profile                   : Layer 3
Mode                             : Joint stereo
Mode extension                   : MS Stereo
Codec ID                         : 55
Codec ID/Hint                    : MP3
Duration                         : 1h 17mn
Bit rate mode                    : Constant
Bit rate                         : 128 Kbps
Channel(s)                       : 2 channels
Sampling rate                    : 44.1 KHz
Compression mode                 : Lossy
Stream size                      : 71.0 MiB (5%)
Alignment                        : Split accross interleaves
Interleave, duration             : 42 ms (1.00 video frame)
Interleave, preload duration     : 500 ms




NOTES:

Ok here we go with a better source,this time using thegrinch release....however still has faults.Colours looked a tad
whacked too me ...too much yellow.But at least its not so cropped and is pretty dam level.
Audio has more issues and not the greatest line,but still better than cam audio.
For this release we resize and also changed the AR as it looked off too us....also lowered the chroma as it was too strong
in alot of scenes,altered the rgb colours and also changed the brightness and contrast levels.
Audio dropped in Adobe and gave it some TLC using hiss removal and a revamp of the EQ bands.


SCREENS:

[IMG]http://i.imgur.com/MS429.png[/IMG]
[IMG]http://i.imgur.com/rKYXo.png[/IMG]
[IMG]http://i.imgur.com/V9kH4.png[/IMG]


GREETZ: 

Past,Present and Future